<svg width="1603" height="1594" viewBox="0 0 1603 1594" fill="none" xmlns="http://www.w3.org/2000/svg">
<g clip-path="url(#clip0_3_2)">
<path d="M1200.5 1.69975C1183.7 5.19975 1161.5 12.6997 1157.1 16.2997C1156.2 16.9997 1152.1 19.5997 1148 21.9997C1142.3 25.2997 1136.6 30.2997 1124.8 42.2997C1113.9 53.2997 1108.1 58.3997 1105.8 59.0997C1103.5 59.6997 1097.6 59.4997 1087 58.3997C1065.8 56.1997 1054.4 57.2997 1031.6 63.5997C1023.7 65.7997 1019.1 67.7997 1008 73.4997C1001.3 76.8997 993.2 83.2997 983.1 92.9997C982.2 93.7997 977.9 99.3997 973.6 105.3C964.8 117.3 963.2 118.5 950.5 121.9C946.2 123.1 937.5 126.6 931.3 129.6C921.9 134.2 918.8 136.3 912.2 142.8C874.8 179.6 862.5 222.9 875.2 272.5C877.3 280.8 884.6 296.7 890.2 305.6C900.5 321.5 920.2 338.1 939 346.8C973.7 362.9 1012.8 364.1 1049.8 350.4C1061.7 346 1067.3 343 1076.8 336.3C1090.2 326.7 1102.9 315 1109.9 305.7C1119.6 292.9 1121.7 290.5 1125 288.6C1128.4 286.5 1130 286.5 1213.7 286C1293.8 285.5 1299 285.4 1300.7 283.7C1302.3 282.2 1302.5 280 1302.5 268C1302.5 259.2 1302.1 253.7 1301.4 253C1299.6 251.2 1288.4 250 1271.7 250C1260.6 250 1255 249.6 1252.6 248.6C1246.6 246.1 1246.5 245.4 1246.5 195.8V151.2L1249.8 147.3C1256 139.9 1260.6 133.5 1262 130C1264 125.2 1263.8 112.5 1261.7 107.8C1254.1 90.6997 1230 84.7997 1214.6 96.1997C1210.3 99.3997 1208.6 101.5 1206.2 106.8C1201.5 117.1 1201.4 119.3 1205 128.5C1206.7 132.9 1209.8 139.9 1211.8 144L1215.5 151.5V196.5C1215.5 238.1 1215.4 241.8 1213.7 244.8C1212.6 246.7 1210.4 248.8 1208.5 249.6C1203.7 251.6 1178.5 252.4 1162.3 251.2C1148.5 250.1 1144 248.7 1141.9 244.7C1140.5 242.1 1139.3 195.6 1140.4 186.6C1141 181.8 1141.9 180 1145.5 175.7C1147.9 172.8 1151.6 167.6 1153.7 164C1157.2 157.9 1157.5 157 1157.5 149C1157.5 141.3 1157.2 140.1 1154.6 136.1C1147.9 125.7 1140.6 121.7 1128.5 121.7C1119 121.7 1114.2 123.5 1108.7 128.8C1106.6 130.8 1103.6 134.7 1102.2 137.5C1099.9 141.8 1099.5 143.7 1099.6 151C1099.6 158.7 1099.9 160 1103 165.5C1112.5 182.5 1112.8 186.4 1107.9 224C1105.7 240.7 1099.6 257.4 1089.8 273.8C1079.5 290.9 1057 309.5 1037.8 316.6C1020.9 322.8 1018.3 323.3 1000 323.4C981.7 323.4 980.5 323.3 964.5 317.7C942.5 310.1 925.1 294 916.3 273C910 258 909.5 255.4 909.5 233V212.5L912.9 204C919.6 187.1 930.5 173.8 943.4 166.5C952.9 161.2 968.4 156.3 979.6 155C988.3 154.1 991.6 152.2 993.6 147.2C994.5 145.2 997.4 138.9 1000.1 133.4C1004.4 124.6 1006.2 122.1 1013.3 115.3C1027.8 101.3 1044.1 95.0997 1068.5 94.2997C1083.8 93.6997 1092.9 94.8997 1111.8 99.6997C1123.9 102.7 1125.7 102.3 1128.6 95.5997C1133.8 84.0997 1146.5 68.4997 1159.2 57.9997C1172.7 46.7997 1183.9 41.3997 1203 36.8997C1211.1 34.9997 1239.5 35.1997 1249 37.2997C1276.6 43.3997 1299.3 59.2997 1319.1 86.4997C1326.4 96.4997 1327.5 96.8997 1341.9 94.4997C1358.4 91.7997 1378.4 91.3997 1388.5 93.4997C1406.3 97.2997 1425.9 105.8 1439 115.5C1459.4 130.6 1472.4 154.1 1475.9 181.8C1477.5 194.2 1476.7 193.5 1491.1 195.5C1518.9 199.5 1540.4 212.5 1554.5 234C1565.7 251.1 1571.4 275.3 1568.1 292C1566.6 299.6 1562 310.6 1557.9 316.7C1556.1 319.3 1549.3 326.7 1542.8 333.2C1534.5 341.4 1531 345.5 1531 347.1C1531 348.4 1533.1 352.6 1535.7 356.5C1546.4 372.5 1549.1 377.6 1552.9 388.8C1558.4 404.7 1558.1 417.4 1551.9 433C1546.3 447.1 1537.1 458.3 1524.5 466.5C1512.8 474.1 1508.1 475.5 1493 475.5C1477.9 475.5 1469.2 473.2 1459.4 466.6C1449.6 460 1441.7 448.4 1444 444C1446.1 440 1450.6 438.8 1465.6 438.2C1484.2 437.5 1483.5 438.2 1483.4 420.9C1483.4 408.9 1483.2 407.8 1481.2 405.7L1478.9 403.5H1404.9H1330.8L1328.4 406.3C1326.2 408.9 1326 410 1326 419.1C1326 429.6 1327.3 434 1330.7 435.6C1331.7 436 1346 436.6 1362.5 436.9C1382.4 437.3 1393.2 437.9 1394.5 438.7C1398.2 440.8 1400.1 443.7 1406 456.8C1412.5 471.5 1418.6 480.7 1426.3 487.6C1435.9 496.3 1450.3 504.5 1462.2 508C1466.2 509.2 1471.5 510.8 1474 511.6C1480.2 513.5 1503.6 513.5 1509.9 511.5C1512.4 510.7 1517.6 509.3 1521.3 508.4C1525.1 507.5 1531.7 505 1536.1 502.9C1557.5 492.6 1572.2 477.2 1582 454.9C1587.6 442.3 1589.7 434.8 1591.5 420.5C1592.9 409.6 1592.9 407.2 1591.6 396.5C1589.8 382.6 1587.5 373.6 1583 363C1578.5 352.4 1578.6 350 1584.5 341.1C1593.2 327.8 1599.6 313.5 1601.4 303.5C1604.3 287.2 1603.1 256.8 1598.9 244C1597.3 238.9 1590 221.9 1588.1 219C1579.9 205.7 1567.3 192.1 1553.5 181.4C1547.6 176.9 1532.6 169 1523.3 165.5C1511.1 160.9 1509.4 159.4 1506.1 151.6C1504.5 147.7 1502.7 142.7 1502 140.5C1500 134.3 1491.4 119.2 1485.5 111.5C1466 86.1997 1438.1 68.7997 1402.1 59.4997C1392.3 56.9997 1381 55.9997 1362.6 55.8997C1350.2 55.8997 1344.8 55.4997 1342.3 54.4997C1340.4 53.6997 1335.2 49.0997 1330.7 44.3997C1316.1 28.9997 1299.1 16.6997 1284 10.7997C1276.3 7.79975 1263.3 3.79975 1253.5 1.59975C1244.3 -0.500255 1210.8 -0.400255 1200.5 1.69975Z" fill="white"/>
<path d="M1337.5 134.6C1332.1 136.6 1325.6 143.2 1322.9 149.4C1321.2 153.4 1320.7 156.4 1320.7 163.1C1320.8 174.6 1323.8 180.6 1332.3 186.5C1338.2 190.5 1338.2 190.5 1347.8 190.5C1356.6 190.5 1357.9 190.2 1362 187.8C1372.9 181.1 1378 172.5 1378 160.3C1378 150.6 1370.7 138.6 1362.5 134.9C1357.5 132.6 1343.4 132.4 1337.5 134.6Z" fill="white"/>
<path d="M1003 183.9C995.5 186.3 989.1 192.1 984.8 200.2C981.6 206.2 981.6 217.7 984.7 223.6C988.3 230.4 992.1 234.1 998.5 237.1C1013.7 244.4 1031.3 238.3 1038.7 223.1C1041 218.2 1041.1 204.9 1038.7 200C1033.8 189.8 1024.5 183.9 1012.5 183.4C1008.7 183.2 1004.4 183.4 1003 183.9Z" fill="white"/>
<path d="M1444.5 207.9C1437.2 209.8 1429.9 215.5 1426 222.4C1423.3 227 1423 228.4 1423 236.3C1423 243.6 1423.4 245.9 1425.4 249.8C1430.8 260.4 1438.9 265.3 1451 265.4C1463.5 265.5 1471.7 260.5 1477.6 249C1479.9 244.6 1480.4 242.2 1480.5 236.5C1480.5 224.1 1474.8 214.5 1464.4 209.5C1460.5 207.6 1449 206.7 1444.5 207.9Z" fill="white"/>
<path d="M532 314.3C529.5 315.5 529.5 315.7 529.2 330.8C528.9 351 527.9 350 547.9 350C567.8 350 567.4 350.3 567.8 334.5C568.3 319.4 567.7 316.4 564 314.5C560.2 312.5 535.8 312.4 532 314.3Z" fill="white"/>
<path d="M607.4 313.7C602.4 314.7 601.7 317 601.6 331.5C601.5 344.2 601.6 345.1 603.8 347.2L606.1 349.5L726.8 349.8C814.3 350 848.9 349.8 852.8 349C860.4 347.3 861.5 344.9 861.5 329.8C861.5 318.9 861.3 317.9 859.2 315.8L856.9 313.5L733.2 313.4C665.2 313.3 608.5 313.4 607.4 313.7Z" fill="white"/>
<path d="M1134.9 327.7C1133.7 329 1133.5 356.9 1133.2 498.7C1133 687.4 1132.4 673.2 1139.8 674.7C1144.3 675.6 1153.6 675.6 1157.3 674.6C1158.7 674.3 1160.5 673 1161.2 671.7C1162.2 670 1162.6 638.4 1163 517.9C1163.6 351 1163 364.2 1169.7 361.3C1173.6 359.7 1186 359.6 1189.3 361.1C1194.7 363.5 1194.5 360.2 1194.6 462.7C1194.7 549.2 1194.9 558.2 1196.4 560.5C1198.5 563.8 1201.3 564.3 1212.2 563.8C1224 563.2 1224 563.2 1224 548.1C1224 541.7 1224.1 514.9 1224.2 488.5C1224.5 442.8 1224.6 440.3 1226.5 436.5C1228.2 433 1229.2 432.3 1233.4 431.3C1240.5 429.5 1246.7 430.7 1250.8 434.4C1254.1 437.5 1254.2 437.9 1255 448C1255.5 453.8 1255.9 481.3 1256 509.1C1256 551.2 1256.2 559.9 1257.4 561.6C1258.7 563.3 1260.1 563.5 1270.2 563.5C1277 563.5 1282.3 563 1283.6 562.3C1286.4 560.7 1287 555.9 1287 533.4C1287 513.7 1287.5 511 1291.9 509C1296.6 506.8 1305.3 506.6 1309.4 508.5C1315.3 511.3 1315.7 513.1 1316.5 537C1317 552.9 1317.5 559.1 1318.6 560.7C1320.3 563.4 1326.4 564.5 1336.1 563.8C1344.4 563.2 1347 561.4 1347 556.2C1347 551.8 1350.4 545.8 1354 543.7C1360.2 540 1369.7 542.5 1372.2 548.4C1373.2 550.9 1373.5 575.4 1373.5 670C1373.5 735.2 1373.1 790.2 1372.7 792.2C1372.2 794.7 1370.9 796.7 1368.7 798.2L1365.5 800.5L1294 800.8C1254.7 801 1219.2 800.9 1215.2 800.5C1209.3 799.9 1207.1 799.2 1203.5 796.7C1199.1 793.6 1172.1 768.4 1134.9 732.8C1124.6 723 1114.9 714 1113.4 712.8C1108.7 709.3 1102.2 703.2 1090.5 691.5C1084.5 685.4 1072.2 673.7 1063.2 665.5C1054.2 657.3 1046 649.1 1044.9 647.4C1043.2 644.6 1042.9 642.2 1042.8 628.8C1042.6 615.6 1042.8 613.1 1044.3 610.9C1046.6 607.5 1050.8 605.7 1056.5 605.8C1065.9 606 1069.7 610.9 1070.7 624.5C1071 628.3 1071.9 632.5 1072.7 633.8C1074 636 1074.6 636.1 1084.2 635.8C1098.6 635.4 1097.8 637.2 1098.2 604C1098.5 575.4 1098.3 573.8 1093.4 572C1090 570.7 1023.9 570.7 1020.5 572C1015.8 573.8 1015.6 575.9 1015.2 615.5C1014.8 652.7 1015.4 661 1018.5 667C1020.8 671.4 1041.3 691.2 1063 710.1C1067.7 714.1 1076.4 722 1082.4 727.5C1088.3 733 1095.3 739.3 1097.8 741.5C1100.3 743.7 1104.4 747.5 1107 750C1111.6 754.5 1119 761.3 1131 772.4C1134.6 775.7 1144.5 784.9 1153 793C1194.4 832.1 1192.9 830.8 1198.4 832C1202 832.8 1233 833 1301 832.8C1407 832.5 1403.5 832.7 1405.1 827C1405.5 825.6 1405.8 755.3 1405.9 670.7C1406 538.5 1405.8 516.4 1404.6 513.5C1403.8 511.6 1403 509.9 1402.8 509.9C1402.6 509.8 1391.9 509.5 1379 509.1C1348.1 508.3 1347.1 507.7 1346.9 492.2C1346.8 482.1 1345.2 476.2 1341.8 473.7C1339.4 471.9 1337.3 471.7 1316.6 471.5C1297.7 471.3 1293.7 471 1291.6 469.6C1286.7 466.5 1286.6 465.4 1286.5 434.3V405L1283.7 402.3L1281 399.5L1255.7 399C1238.8 398.6 1229.8 398.1 1228.4 397.3C1223.8 394.7 1223 389.9 1223 363.2C1223 337 1222.4 332.3 1218.5 328.4L1216.1 326H1176.2C1140.3 326 1136.1 326.2 1134.9 327.7Z" fill="white"/>
<path d="M1269.5 326.5C1269 326.7 1267.3 327.1 1265.9 327.4C1261.9 328.3 1260.5 332.8 1260.5 345.2C1260.5 358.3 1260.8 358.8 1271.1 360.1C1279.1 361.1 1457.9 361.3 1471.8 360.3C1482.7 359.5 1483.5 358.5 1483.4 345C1483.4 333.7 1481.8 328.3 1478.3 326.9C1476.1 326.1 1272 325.6 1269.5 326.5Z" fill="white"/>
<path d="M533.5 385.9C529.3 387.7 528.7 389.6 528.6 401.3C528.5 407.5 528.8 413.6 529.2 415C530.7 420.2 532.2 420.5 562.5 420.8C577.9 421 592.4 420.9 594.8 420.5C600.8 419.6 602 416.9 602 403.5C602 391.9 600.8 387.8 596.8 386.5C593.6 385.4 535.9 384.9 533.5 385.9Z" fill="white"/>
<path d="M645 386.2C637.7 387.8 637.5 388.2 637.5 403.5C637.5 415.1 637.7 417.2 639.3 418.7C640.9 420.3 643.1 420.5 659.8 420.5C670.1 420.5 679.7 420.2 681.1 419.8C682.5 419.4 684.3 417.8 685 416.3C686.9 412.2 687.5 397.4 685.8 392.5C684.7 389 683.9 388.3 679.5 386.8C673.8 384.9 652.8 384.5 645 386.2Z" fill="white"/>
<path d="M725.2 386.4C720.7 388.5 719.8 391.7 720.2 405.2C720.4 414.9 720.8 417.3 722.3 418.7C723.9 420.3 726.3 420.5 747 420.5C767.7 420.5 770.1 420.3 771.7 418.7C773.2 417.2 773.6 414.8 773.8 404.9C774.2 391.8 773.3 387.6 769.7 386.5C768.5 386.2 758.7 385.7 748 385.4C732.1 385 727.9 385.2 725.2 386.4Z" fill="white"/>
<path d="M814.3 386.3C808.7 388.4 808.5 389 808.5 403.1C808.5 415.5 808.6 416.3 810.8 418C812.1 419.1 815.6 420.1 819.5 420.5C827.1 421.4 852.7 420.6 855.2 419.6C857.8 418.5 859 412.7 858.9 402.5C858.8 390.8 858.2 388.9 854 386.8C851.1 385.3 847.8 385 834 385.1C824 385.1 816.2 385.6 814.3 386.3Z" fill="white"/>
<path d="M956.8 385.9L898.1 386.5L895.8 388.8C893.7 390.8 893.5 392.2 893.2 401.8C892.9 413.9 894.4 418.9 899 420.1C903.2 421.3 1093.9 421.1 1096 420C1098.6 418.6 1100 413 1100 403.5C1100 392.9 1098.6 388.2 1095.2 386.7C1092 385.3 1046.9 385.1 956.8 385.9Z" fill="white"/>
<path d="M1022.4 455.1C1016.5 456.8 1016.6 456.5 1016.1 490.7C1015.7 524.8 1016.2 531.8 1019 535.2C1020.8 537.5 1020.8 537.5 1054.7 537.8C1090.6 538.2 1094.9 537.8 1097.2 533.7C1099.1 530.4 1098.4 461.4 1096.5 458.4C1095.4 456.7 1093.5 456.1 1086.3 455.1C1075.8 453.8 1026.9 453.8 1022.4 455.1Z" fill="white"/>
<path d="M602.9 455.7C596.2 456.4 595.5 458.3 595.6 474.3C595.7 488.1 595.8 488.4 598.3 490.6C601.5 493.3 613 494.5 626.5 493.5C639.6 492.5 640.3 491.8 640.8 476.2C641.3 461.2 640.5 457.9 635.9 456.3C632.7 455.2 611.5 454.8 602.9 455.7Z" fill="white"/>
<path d="M678.8 455.7C674 456.5 673.5 458.1 673.6 473.5C673.7 488.9 674.4 491.5 678.8 492.7C680.3 493.2 689.5 493.5 699.2 493.4C716.5 493.4 717 493.3 719.5 491C722 488.7 722 488.4 722 474C722 454.4 723.4 455.6 699.7 455.4C689.7 455.3 680.3 455.4 678.8 455.7Z" fill="white"/>
<path d="M763.9 455.7C758.3 456.6 757.5 458.8 757.5 474.2C757.5 488.1 757.5 488.2 760.2 490.5C762.5 492.5 764.3 492.8 774.7 493.4C781.2 493.7 790.3 493.6 794.9 493.2C806.8 492.2 807.4 491.4 807.4 473.5C807.5 454.7 808.6 455.5 784.7 455.4C774.7 455.3 765.3 455.4 763.9 455.7Z" fill="white"/>
<path d="M848.3 455.7C843.8 456.6 843 459.4 843 474.1C843 494.4 843.7 495 871.3 495C890.3 495 893.7 494.2 897 488.8C898.9 485.8 899 484.2 898.8 472.8C898.4 454.5 899.9 455.5 872.2 455.4C860.3 455.3 849.5 455.4 848.3 455.7Z" fill="white"/>
<path d="M939.2 455.6C934.6 456.7 933.7 459.8 934.2 474.4C934.5 487.1 934.7 488.1 937 490.5L939.5 493.2L954.5 492.8C976.9 492.3 978 491.3 978 471.5C978 455.4 978.8 456 958 455.5C948.9 455.3 940.5 455.4 939.2 455.6Z" fill="white"/>
<path d="M530.8 457.2C529 458.7 527 467 527 473.4C527 480.9 529.1 488.7 531.7 491.2C534 493.3 535 493.5 546.5 493.5C563.1 493.5 562.4 494.3 562.8 475C563 465.5 562.7 459.4 562 458.1C561 456.1 560.1 456 546.7 456C536.8 456 531.9 456.4 530.8 457.2Z" fill="white"/>
<path d="M797.1 527C785.9 527.8 786 527.6 786 545.5C786 564.7 784.5 563.5 809.1 563.5C833.5 563.5 832.4 564.4 832.8 545.7C833.3 527.6 833.4 527.7 817.3 527C810.8 526.7 801.7 526.7 797.1 527Z" fill="white"/>
<path d="M534.2 528C529.7 529.1 529.3 529.5 528.1 536.4C527.3 540.7 527.3 544.8 528.1 551.2C529.1 558.9 529.6 560.1 531.9 561.6C534.3 563.2 539.7 563.3 598.9 563.2C670.5 563.1 667.2 563.4 668.3 556.3C669.3 550.5 669.1 534.5 668.1 531.7C667.5 530.3 665.8 528.8 663.9 528.1C660.2 526.8 539.7 526.7 534.2 528Z" fill="white"/>
<path d="M710.3 527.7C705.1 528.4 703 532 703 540.3C703 544.2 703.5 550.2 704.1 553.8C705.7 562.9 707.1 563.4 729.8 563.5C752 563.5 751 564.4 751 545.5C751 526.7 752 527.5 730.3 527.4C721.1 527.3 712 527.5 710.3 527.7Z" fill="white"/>
<path d="M879 527.6C868.3 528.6 867.6 529.8 868.2 547C868.6 557.8 868.8 559.3 870.8 561.3L873.1 563.5L919.3 563.8C944.7 564 967.9 563.9 970.8 563.5C975.7 562.9 976.3 562.6 977.6 559.3C979.3 555.3 979.9 542.7 978.7 535.7C978.1 532.5 977.2 530.5 975.7 529.6C973.9 528.4 964.9 528.1 928.5 527.7C903.8 527.4 881.5 527.4 879 527.6Z" fill="white"/>
<path d="M51.3 528.9C38.8 529.7 35.3 531.2 33.8 536.6C33.3 538.2 32.8 606.4 32.7 688.2L32.5 836.8L34.6 839.6C35.7 841.1 38 842.7 39.6 843.2C44.3 844.5 80.4 845.4 94.3 844.5C105.6 843.9 107.4 843.5 109.8 841.5L112.4 839.2L112.2 690.1C112 577.1 111.6 540 110.7 536.9C108.5 529.4 107.4 529.1 83.5 528.6C72 528.4 57.4 528.5 51.3 528.9Z" fill="white"/>
<path d="M250.5 530C243.3 531.4 239.5 537.7 233.6 557.5C231.7 564.1 228 575.6 225.5 583C223 590.4 218.8 603.2 216.1 611.5C213.4 619.7 209.8 630.5 208.1 635.3C206.4 640.1 205 644.5 205 645.1C205 645.6 203 651.5 200.7 658.3C198.3 665 192.8 681.3 188.5 694.5C184.3 707.7 179.7 721.3 178.4 724.6C177.1 728 175.4 733.2 174.6 736.1C171.6 746.9 170.2 751.6 168.6 756C166.2 762.4 162.6 774 159.5 784.9C158.1 790 156.3 795.2 155.5 796.4C152.8 800.6 142.9 829.7 141.6 837C141.2 839.4 141.5 841.3 142.4 842.5C143.8 844.4 145.3 844.5 178.7 844.5C210.8 844.5 213.8 844.4 216.4 842.7C219.4 840.7 223.8 831.9 225.9 823.5C230.5 806.1 235.5 789 237.1 785.9C240.3 779.6 243.3 779 271.8 779.1C303.5 779.1 335.7 780.5 339.5 781.9C342.5 783 347.1 789.2 348.4 794.1C348.8 795.4 349.7 798.1 350.5 800C351.8 803.4 353.3 808.5 356.5 820.7C358.6 828.7 363.2 839 365.9 841.4C368.7 844 380.7 844.9 412.8 844.9C440.5 845 444 844.4 444 839.2C444 836 439.4 821.6 429.5 793.5C422.2 772.8 416.1 755.6 407.1 730C403.9 720.9 400.8 712.1 400.2 710.5C396.7 701.4 392.3 688.7 387.5 674.5C384.5 665.7 378.9 649.3 375 638C371.1 626.7 366.8 614.1 365.6 610C364.3 605.9 361.4 597.5 359.3 591.5C357.1 585.4 353.6 575.1 351.5 568.5C341.2 535.9 340.3 533.8 335.8 531.3C332.8 529.7 329 529.5 293.5 529.3C272.1 529.2 252.7 529.5 250.5 530ZM291.2 617.2C294.5 619.8 299.1 630.8 302.4 644C306.2 658.8 309.8 670.9 316 689.9C319.7 701.5 320.8 708.7 319.4 712.5C319 713.4 316.9 715 314.7 716.1C311 718.1 309.3 718.2 290.1 717.8C260.7 717.2 259.2 716.4 262.3 700.6C263.1 696.1 265.7 685.7 267.9 677.5C270.2 669.2 274.2 653.9 276.9 643.5C282.7 621 283.2 619.7 286.2 617.6C288.9 615.7 289.2 615.7 291.2 617.2Z" fill="white"/>
<path d="M604.1 598.3C600.7 600 599.7 604.6 600.2 617.1C600.6 631.5 601.4 632.6 611.7 633.7C621.5 634.7 631.5 634.7 738.3 633.6L825.2 632.7L826.8 630.1C828.2 628.1 828.5 625 828.5 614.7C828.5 602.7 828.4 601.7 826.3 600.1C824.4 598.5 819.9 598.3 778.3 597.7C699.7 596.5 606.9 596.8 604.1 598.3Z" fill="white"/>
<path d="M869.7 597.7C865.3 598.4 863.7 601.9 863.2 612.8C862.7 624 864 630.4 867.3 632.2C868.8 633.1 874.4 633.5 885.2 633.5C905.8 633.5 905.4 633.9 905.8 616.9C906.2 603 905.3 599.7 900.8 598.1C897.9 597.1 875.7 596.8 869.7 597.7Z" fill="white"/>
<path d="M940.7 598.1C937.1 599.5 936.5 602.1 936.5 615.6C936.5 633.4 937.8 634.4 960.4 633.9C973.3 633.5 974.3 633.4 976 631.2C978.5 628.1 979.4 621.5 978.7 610.2C978.3 603.4 977.7 600.3 976.5 599.1C975.2 597.8 972.1 597.5 959.2 597.3C950.2 597.2 942.3 597.5 940.7 598.1Z" fill="white"/>
<path d="M530.8 599.2C528.4 601.1 527 607.4 527 616.4C527 627 528.5 631.6 532.2 632.9C536.6 634.5 549.1 635.3 555.6 634.5C560 634 562 633.2 564.2 631C567 628.2 567 628 567 615.7C567 603.9 566.9 603.2 564.5 600.6C562.1 598 562 598 547.2 598C536.9 598 531.9 598.4 530.8 599.2Z" fill="white"/>
<path d="M1380 901.5C1358.9 904.4 1341.7 909.7 1329 917.4C1319.6 923 1306.8 934.6 1303 941C1301.6 943.3 1299.4 946.8 1298.1 948.8C1294.4 954.6 1290.2 965.5 1287 977.9C1284.3 988.1 1284 990.8 1284 1005C1284 1018.7 1284.3 1022.1 1286.6 1030.6C1288 1036.1 1290.2 1043 1291.6 1046C1295.3 1054.1 1305.4 1066.8 1312.6 1072.5C1319.5 1077.9 1336.5 1087 1344.5 1089.5C1350 1091.3 1375.9 1096.3 1391 1098.6C1396.2 1099.4 1401.8 1100.5 1403.4 1101C1405 1101.6 1407.9 1102 1409.9 1102C1414.6 1102 1429.1 1105.5 1433.3 1107.6C1439.8 1110.9 1445.9 1116.4 1448.7 1121.4C1451.1 1125.7 1451.5 1127.6 1451.5 1134C1451.5 1142.4 1449.5 1147.2 1443.5 1153.9C1436.8 1161.2 1420.1 1167 1405.5 1167C1399.1 1167 1384.7 1164.6 1379.4 1162.7C1367.1 1158.2 1358.9 1148.8 1353.9 1133.7C1351 1124.7 1349.3 1123.7 1337.6 1123.2C1320.6 1122.6 1278.3 1124.5 1276.5 1126C1275.1 1127.2 1274.9 1128.7 1275.3 1135C1275.9 1144.3 1280 1161.6 1283.4 1169.3C1292.6 1189.7 1310.7 1207.2 1333 1217.2C1337.9 1219.4 1355 1225 1356.9 1225C1357.8 1225 1360.3 1225.7 1362.5 1226.4C1368.7 1228.6 1399.2 1231.3 1409 1230.7C1437.5 1228.7 1441.1 1228.1 1461 1221.8C1486.8 1213.7 1507.3 1195.8 1519 1171.3C1527.6 1153.4 1530.4 1126.2 1526 1103.8C1524.9 1098.1 1523.3 1091.9 1522.6 1090C1515.8 1072.8 1508.9 1063.3 1497.2 1054.6C1483.7 1044.5 1467.7 1038.7 1438.5 1033.1C1432.6 1031.9 1427.4 1030.7 1426.9 1030.4C1426.3 1030.1 1421.6 1029.4 1416.2 1029C1387.1 1026.3 1371.1 1020.7 1364.7 1011.1C1354.8 996.1 1358.3 977.2 1372.3 969.1C1376.5 966.7 1380.3 965.6 1387.6 964.5C1399.7 962.6 1403.1 962.6 1415.3 964.5C1433.6 967.2 1444.5 976.1 1449.9 992.5C1453.9 1004.2 1451.4 1003.4 1485.9 1003.8C1515.2 1004.2 1515.8 1004.2 1517.9 1002.1C1519.6 1000.4 1520 998.8 1520 993.9C1520 982.2 1515.7 966.4 1509.1 953.6C1490.2 917.1 1455.3 899.6 1402.1 900.1C1395.2 900.2 1385.2 900.8 1380 901.5Z" fill="white"/>
<path d="M39.0002 905.9C33.2002 907.5 33.5002 899.2 33.2002 1061.3C33.1002 1164.1 33.3002 1211.4 34.0002 1214.1C34.8002 1216.9 35.9002 1218.4 37.8002 1219.3C41.8002 1221 98.9002 1221.6 104.7 1219.9C107.1 1219.3 109.3 1218.3 109.7 1217.7C111.6 1214.6 112.1 1204.5 112.6 1158C113.2 1100 113 1101.4 120.5 1097.6C124.4 1095.6 125.9 1095.5 166 1095.6C205.9 1095.7 207.7 1095.8 212.3 1097.8C215.4 1099.2 217.4 1100.8 218.2 1102.7C219.1 1104.7 219.6 1121 219.9 1159.5C220.6 1220.3 220.3 1218.1 227.7 1219.3C233.9 1220.4 290.2 1220.1 294.1 1219C296.4 1218.4 298.1 1217.1 298.8 1215.4C299.7 1213.6 300 1174.7 300 1063.7C300 923.7 299.9 914.3 298.2 911C295.3 905.1 292.9 904.8 257.2 905.2L226 905.6L222.7 908.8L219.5 912L219 964.4C218.5 1015.7 218.5 1016.9 216.4 1019.7C212.7 1024.7 210.8 1024.9 166.2 1024.9C121.4 1025 120.4 1024.9 116.2 1019.5C115 1018 113.5 1015.1 112.9 1013.1C112.2 1010.8 111.6 991.5 111.1 961C110.4 909.9 110.4 909.4 105.7 906.8C103.2 905.4 43.6002 904.5 39.0002 905.9Z" fill="white"/>
<path d="M453.2 906L430.8 906.5L428.5 909.2C426 912.1 422.9 919.9 417.6 937C413.2 951.5 407.6 968.4 404.4 977.5C403 981.3 397.5 997.8 392 1014C386.6 1030.2 381.4 1045.5 380.5 1048C377.8 1055.8 362.2 1103.4 361.1 1107C360.6 1108.9 359.2 1113 358.1 1116C357.1 1119 354.5 1127.1 352.5 1134C348.3 1148 347.2 1151.5 340.7 1168.5C327.2 1204.1 323.8 1216.9 327.1 1219.1C328.9 1220.3 399.9 1219.8 402.3 1218.6C404.8 1217.4 407.3 1212 410.9 1200C412.7 1194.2 415.6 1184.4 417.4 1178.2C421 1166.1 423.4 1162.5 429.5 1159.5C432.3 1158.2 438.8 1158 474.2 1158.1C496.9 1158.1 517.7 1158.5 520.3 1158.9C530.2 1160.5 532.6 1164.3 538 1186.4C542.7 1205.7 546.7 1216.7 549.4 1218.3C552.2 1219.9 620.2 1220.6 624.3 1219.1C629.3 1217.2 629.2 1216.9 608 1155C594.6 1116.1 586.9 1093.5 579 1070C575.8 1060.4 571.3 1047.3 569 1041C563.7 1026.2 554.2 998.5 548.1 980C545.5 972 542.2 962.3 540.7 958.5C539.3 954.6 537 947.7 535.5 943C530.8 927.6 524.7 911.5 522.7 909.2C521.6 908 519 906.6 517.1 906C513.5 905 493.8 905 453.2 906ZM478.8 1002C481.5 1005.8 487.4 1021.6 492.9 1040C494.2 1044.1 497.2 1053.8 499.7 1061.5C502.8 1070.8 504.5 1077.9 504.8 1082.5C505.2 1088.9 505 1089.7 502.8 1091.7C499 1095.3 490.7 1096.3 472.1 1095.6C454 1094.9 449.6 1093.7 447.2 1088.8C445.6 1085.5 446.5 1080.2 451.3 1062.5C469.3 997.1 471.6 992.2 478.8 1002Z" fill="white"/>
<path d="M661 905.8C659.5 906.3 657.8 908 656.6 910.4C654.9 914 654.6 917.9 653.9 954.4C653.5 976.5 653.1 1044.1 653.1 1104.7C653 1212.7 653 1215 654.9 1216.9C656 1218 658.4 1219.2 660.2 1219.5C662 1219.8 676.7 1220 692.7 1219.8C721.6 1219.5 722 1219.5 724.2 1217.2L726.5 1214.9L726.6 1140.7C726.7 1059.6 726.7 1058.8 732 1058.2C733.8 1058 735.4 1058.8 737.2 1060.7C743.2 1067 750 1075.1 750 1075.8C750 1076.2 753.3 1081.3 757.4 1087C768.9 1103.2 770.7 1106 776 1114C778.7 1118.1 785.4 1128 790.9 1136C802.6 1152.9 807.8 1160.5 823.2 1183.1C840.9 1209.1 842.7 1211.6 846.2 1215.3C849.5 1218.8 849.5 1218.8 861 1219.5C875.3 1220.4 917.8 1219.7 920.3 1218.6C921.3 1218.1 922.6 1216.6 923.2 1215.1C924.4 1212.1 924.3 952.8 923.1 925.6C922.4 910.8 922.1 908.6 920.5 907.4C919 906.3 912.2 906 887.3 906H855.9L853.6 908.3C851.4 910.5 851.2 911.8 850.5 926.5C850.1 935.1 850 970.6 850.4 1005.4C851.1 1075.2 851.1 1075.2 845.4 1075.8C842.8 1076.1 841.8 1075.4 837.5 1069.8C832.6 1063.6 828.1 1057.1 817 1040.3C808.1 1026.9 801.2 1016.6 800.2 1015.4C799.7 1014.9 798.7 1013.3 798 1011.9C797.3 1010.6 795.3 1007.7 793.6 1005.5C791.9 1003.4 788.3 998.1 785.5 993.9C782.8 989.7 776.9 980.9 772.5 974.5C764.3 962.5 760.4 956.7 753.6 946.4C733.9 916.5 729 909.9 724.9 907.5C721.7 905.6 719.6 905.5 692.5 905.3C676.6 905.2 662.4 905.5 661 905.8Z" fill="white"/>
<path d="M988.9 905.8C978.6 906 977 906.3 975.4 908.1C973.6 910.1 973.5 915.4 972.6 1055.1C972.2 1134.9 972.1 1203.4 972.5 1207.5C972.9 1212.3 973.8 1215.8 974.9 1217.1L976.6 1219.3L1046.1 1219.1C1084.3 1219 1117.8 1218.7 1120.5 1218.4C1137.4 1216.5 1157.3 1210.5 1172.5 1202.8C1214.4 1181.6 1239.5 1146.6 1247.1 1099C1249 1087.4 1249 1037.2 1247.2 1027.5C1243.3 1007 1237.7 990.4 1229.7 975.8C1218.1 954.6 1194.8 931.9 1174.5 922.2C1161.4 915.9 1151.1 911.9 1143.2 910C1138.4 908.9 1132.7 907.5 1130.5 907C1126.8 906.1 1015.5 905.1 988.9 905.8ZM1097 973.5C1117.5 976.9 1139.3 988.1 1148.8 1000.3C1157.2 1011.1 1164.2 1027 1166 1039.5C1169.7 1064.7 1169.7 1063.4 1166 1090C1164.2 1102.7 1159.8 1113.5 1152.3 1123.2C1144.7 1133.2 1131.4 1142.4 1119.2 1146.3C1103.4 1151.4 1102.5 1151.5 1078.9 1151.5C1057.6 1151.5 1056.1 1151.4 1054 1149.5C1048.4 1144.4 1048.6 1148.2 1048.6 1062L1048.5 982.5L1050.8 978.9C1052.9 975.5 1055.6 973.8 1060.5 972.7C1065.4 971.6 1088.3 972.1 1097 973.5Z" fill="white"/>
<path d="M157.5 1259.5C147.5 1261.9 141.9 1266.7 137.1 1276.9L134.6 1282.5L134.2 1348.6L133.8 1414.7L136.3 1420.4C141.6 1433 152.6 1440.1 166.7 1440.2C178.1 1440.2 186.4 1436.6 192.7 1428.8C199.3 1420.8 199.5 1419 199.5 1374C199.5 1351.7 199.2 1322.5 198.9 1309C198.3 1287.9 197.9 1283.6 196.1 1277.7C191.1 1262 176 1254.9 157.5 1259.5Z" fill="white"/>
<path d="M575.9 1276.7C570.1 1277.6 569.9 1278.4 568.9 1308.2C568.4 1323.2 568 1356.9 568.1 1383C568.1 1409.1 567.8 1432.4 567.4 1434.8C566.9 1438.1 566.1 1439.4 563.9 1440.5C562.4 1441.3 560.5 1441.7 559.7 1441.4C557.9 1440.8 554.1 1436 547.2 1426C544.4 1421.9 539.1 1414.4 535.6 1409.5C529.5 1400.9 515.9 1381.2 504 1363.6C501 1359.2 495.8 1351.7 492.6 1347C480.6 1329.9 471.7 1316.8 463.6 1304.4C455.7 1292.3 454.4 1290.5 449.4 1285.1L444.2 1279.5L411.4 1279.2C393.3 1279 377.5 1279.2 376.2 1279.5C374.8 1279.8 373.2 1281.5 372.2 1283.8C370.6 1287.2 370.5 1298.2 370 1415.5C369.5 1581.5 369.5 1583 370.8 1586.2C371.4 1587.7 373.1 1589.7 374.7 1590.7C377.2 1592.3 380.2 1592.5 408.1 1592.5C440 1592.5 442.7 1592.2 444.7 1588.1C445.1 1587.2 445.7 1552.7 446 1511.5C446.4 1453 446.8 1436 447.8 1434.2C451.4 1428 458.4 1434.4 475.3 1459.7C479.6 1466.2 501.9 1498 507.7 1506C509.5 1508.5 513.8 1514.5 517.2 1519.4C520.7 1524.3 525 1530.4 526.8 1532.9C534.2 1543.3 542.4 1555 548.1 1563.3C559.8 1580.4 565.7 1587.6 569.7 1589.6C573.1 1591.3 576.4 1591.5 604.5 1591.8L635.6 1592.1L639 1589.8L642.5 1587.4L642.8 1435.3C643 1283.4 643 1283.3 641 1280.7C639.8 1279.2 637.2 1277.6 635.2 1277C631.7 1276.1 581.8 1275.8 575.9 1276.7Z" fill="white"/>
<path d="M64.8 1323.3C51.2 1328.4 32.5 1348.2 18 1372.8C-1.79995 1406.5 -5.29995 1454.9 9.40005 1492.4C13 1501.4 22.4 1518.8 26.3 1523.7C27.6 1525.2 29.4 1527.8 30.3 1529.3C33.4 1534.1 52.3 1553.1 58.3 1557.4C74 1568.5 77.2 1570.5 87.0001 1575.2C101.2 1581.8 100.8 1581.7 107 1584C114.9 1586.9 127.2 1589.7 142.8 1592.1C181 1597.9 227 1588.6 259.5 1568.3C285.4 1552.2 304.5 1531.8 319.2 1504.5C321.8 1499.6 328.8 1479.9 330.5 1472.5C336.1 1448.2 334.5 1420.6 325.9 1396C320 1378.9 317 1373.1 306.6 1358.7C292.3 1338.8 282.6 1330.6 270.1 1327.5C263.7 1326 262.6 1325.9 255.6 1327.4C242.3 1330.1 236.4 1334.7 232.1 1345.9C229.4 1352.6 229.5 1358.4 232.2 1365.5C233.9 1370 235.8 1372.5 241.2 1377.3C254.4 1389.1 264.3 1406.1 268.5 1424C270.4 1432.4 270.4 1450.6 268.5 1459C263.2 1481.6 248 1503.5 228.2 1516.9C221.1 1521.6 205.5 1529.3 199.5 1530.9C192.3 1532.8 171.9 1536 167 1536C157.5 1536 134.6 1531.7 127.5 1528.5C125.9 1527.8 121.9 1526.1 118.8 1524.7C109.9 1520.7 96.0001 1510.7 88.9001 1503.1C78.7 1492.2 76.5 1488.8 70.4 1475C64.1 1460.8 62.2 1448.1 64 1432.5C65.4 1419.9 66.6 1416 72.6 1403.5C77.5 1393.4 86.7001 1381.6 96.4001 1372.8C104.4 1365.6 107.5 1358.8 106.7 1349.9C105.7 1338.5 100.7 1331.5 89.5001 1325.8C82.4001 1322.1 71.1 1321 64.8 1323.3Z" fill="white"/>
</g>
<defs>
<clipPath id="clip0_3_2">
<rect width="1603" height="1594" fill="white"/>
</clipPath>
</defs>
</svg>
